HIERARCHY
ROOT Hips
{
  OFFSET 5.80788e-005 67.184 3.4734
  CHANNELS 6 Xposition Yposition Zposition Zrotation Xrotation Yrotation
  JOINT Chest
  {
    OFFSET 0 8.7983 -4.7612
    CHANNELS 3 Zrotation Xrotation Yrotation
    JOINT Chest2
    {
      OFFSET 0 8.0291 0.4195
      CHANNELS 3 Zrotation Xrotation Yrotation
      JOINT Chest3
      {
        OFFSET 0 9.9351 -2.2114
        CHANNELS 3 Zrotation Xrotation Yrotation
        JOINT Neck
        {
          OFFSET 0 22.3885 -0.4656
          CHANNELS 3 Zrotation Xrotation Yrotation
          JOINT Head
          {
            OFFSET -0.0001 12.643 3.4389
            CHANNELS 3 Zrotation Xrotation Yrotation
            End Site
            {
              OFFSET 0.0001 17.6655 0.5274
            }
          }
        }
        JOINT LeftCollar
        {
          OFFSET 2.2603 21.606 7.4023
          CHANNELS 3 Zrotation Xrotation Yrotation
          JOINT LeftShoulder
          {
            OFFSET 13.5163 -1.1332 -5.0146
            CHANNELS 3 Zrotation Xrotation Yrotation
            JOINT LeftElbow
            {
              OFFSET -0.0995 -28.05 -0.2431
              CHANNELS 3 Zrotation Xrotation Yrotation
              JOINT LeftWrist
              {
                OFFSET 0.0679 -23.3996 -0.1402
                CHANNELS 3 Zrotation Xrotation Yrotation
                JOINT LeftFinger1
                {
                  OFFSET 0.7932 -9.069 2.5189
                  CHANNELS 3 Zrotation Xrotation Yrotation
                  JOINT LeftFinger11
                  {
                    OFFSET -0.8272 -3.3923 0.5977
                    CHANNELS 3 Zrotation Xrotation Yrotation
                    JOINT LeftFinger12
                    {
                      OFFSET -0.5649 -2.3158 0.4082
                      CHANNELS 3 Zrotation Xrotation Yrotation
                      End Site
                      {
                        OFFSET -0.4919 -1.6479 0.2673
                      }
                    }
                  }
                }
                JOINT LeftFinger2
                {
                  OFFSET 0.9159 -9.2044 0.2193
                  CHANNELS 3 Zrotation Xrotation Yrotation
                  JOINT LeftFinger21
                  {
                    OFFSET 0.0117 -4.1944 -0.0248
                    CHANNELS 3 Zrotation Xrotation Yrotation
                    JOINT LeftFinger22
                    {
                      OFFSET 0.0071 -2.3249 -0.0142
                      CHANNELS 3 Zrotation Xrotation Yrotation
                      End Site
                      {
                        OFFSET -0.1475 -2.0882 0.0028
                      }
                    }
                  }
                }
                JOINT LeftFinger3
                {
                  OFFSET 0.6113 -8.7231 -2.0637
                  CHANNELS 3 Zrotation Xrotation Yrotation
                  JOINT LeftFinger31
                  {
                    OFFSET -0.1927 -3.8059 -0.2383
                    CHANNELS 3 Zrotation Xrotation Yrotation
                    JOINT LeftFinger32
                    {
                      OFFSET -0.1091 -2.1688 -0.1362
                      CHANNELS 3 Zrotation Xrotation Yrotation
                      End Site
                      {
                        OFFSET -0.2358 -1.9176 -0.0906
                      }
                    }
                  }
                }
                JOINT LeftFinger4
                {
                  OFFSET -0.6151 -8.0947 -3.5641
                  CHANNELS 3 Zrotation Xrotation Yrotation
                  JOINT LeftFinger41
                  {
                    OFFSET -0.4882 -2.341 -0.6462
                    CHANNELS 3 Zrotation Xrotation Yrotation
                    JOINT LeftFinger42
                    {
                      OFFSET -0.3575 -1.7167 -0.4742
                      CHANNELS 3 Zrotation Xrotation Yrotation
                      End Site
                      {
                        OFFSET -0.4187 -1.5237 -0.3496
                      }
                    }
                  }
                }
                JOINT LeftFinger0
                {
                  OFFSET -1.42 -1.8761 1.4223
                  CHANNELS 3 Zrotation Xrotation Yrotation
                  JOINT LeftFinger01
                  {
                    OFFSET -1.1471 -3.4929 2.6334
                    CHANNELS 3 Zrotation Xrotation Yrotation
                    JOINT LeftFinger02
                    {
                      OFFSET -0.823 -2.3 1.6571
                      CHANNELS 3 Zrotation Xrotation Yrotation
                      End Site
                      {
                        OFFSET -0.5822 -1.6914 1.1582
                      }
                    }
                  }
                }
              }
            }
          }
        }
        JOINT RightCollar
        {
          OFFSET -2.2603 21.606 7.4023
          CHANNELS 3 Zrotation Xrotation Yrotation
          JOINT RightShoulder
          {
            OFFSET -13.5187 -1.1334 -5.0155
            CHANNELS 3 Zrotation Xrotation Yrotation
            JOINT RightElbow
            {
              OFFSET 0.0994 -28.0499 -0.2431
              CHANNELS 3 Zrotation Xrotation Yrotation
              JOINT RightWrist
              {
                OFFSET -0.0679 -23.3996 -0.1402
                CHANNELS 3 Zrotation Xrotation Yrotation
                JOINT RightFinger1
                {
                  OFFSET -0.7932 -9.0691 2.5189
                  CHANNELS 3 Zrotation Xrotation Yrotation
                  JOINT RightFinger11
                  {
                    OFFSET 0.8272 -3.3923 0.5977
                    CHANNELS 3 Zrotation Xrotation Yrotation
                    JOINT RightFinger12
                    {
                      OFFSET 0.565 -2.3158 0.4082
                      CHANNELS 3 Zrotation Xrotation Yrotation
                      End Site
                      {
                        OFFSET 0.4919 -1.6479 0.2673
                      }
                    }
                  }
                }
                JOINT RightFinger2
                {
                  OFFSET -0.916 -9.2044 0.2193
                  CHANNELS 3 Zrotation Xrotation Yrotation
                  JOINT RightFinger21
                  {
                    OFFSET -0.0117 -4.1944 -0.0248
                    CHANNELS 3 Zrotation Xrotation Yrotation
                    JOINT RightFinger22
                    {
                      OFFSET -0.0071 -2.3249 -0.0142
                      CHANNELS 3 Zrotation Xrotation Yrotation
                      End Site
                      {
                        OFFSET 0.1475 -2.0882 0.0028
                      }
                    }
                  }
                }
                JOINT RightFinger3
                {
                  OFFSET -0.6113 -8.7231 -2.0637
                  CHANNELS 3 Zrotation Xrotation Yrotation
                  JOINT RightFinger31
                  {
                    OFFSET 0.1927 -3.8059 -0.2383
                    CHANNELS 3 Zrotation Xrotation Yrotation
                    JOINT RightFinger32
                    {
                      OFFSET 0.1091 -2.1688 -0.1362
                      CHANNELS 3 Zrotation Xrotation Yrotation
                      End Site
                      {
                        OFFSET 0.2358 -1.9176 -0.0906
                      }
                    }
                  }
                }
                JOINT RightFinger4
                {
                  OFFSET 0.6151 -8.0947 -3.564
                  CHANNELS 3 Zrotation Xrotation Yrotation
                  JOINT RightFinger41
                  {
                    OFFSET 0.4882 -2.341 -0.6462
                    CHANNELS 3 Zrotation Xrotation Yrotation
                    JOINT RightFinger42
                    {
                      OFFSET 0.3574 -1.7166 -0.4742
                      CHANNELS 3 Zrotation Xrotation Yrotation
                      End Site
                      {
                        OFFSET 0.4187 -1.5237 -0.3496
                      }
                    }
                  }
                }
                JOINT RightFinger0
                {
                  OFFSET 1.4199 -1.8761 1.4221
                  CHANNELS 3 Zrotation Xrotation Yrotation
                  JOINT RightFinger01
                  {
                    OFFSET 1.1472 -3.4929 2.6336
                    CHANNELS 3 Zrotation Xrotation Yrotation
                    JOINT RightFinger02
                    {
                      OFFSET 0.8229 -2.3 1.6571
                      CHANNELS 3 Zrotation Xrotation Yrotation
                      End Site
                      {
                        OFFSET 0.5822 -1.6914 1.1582
                      }
                    }
                  }
                }
              }
            }
          }
        }
      }
    }
  }
  JOINT RightHip
  {
    OFFSET -9.412 3.9771 -0.7758
    CHANNELS 3 Zrotation Xrotation Yrotation
    JOINT RightKnee
    {
      OFFSET -0.7531 -40.938 0
      CHANNELS 3 Zrotation Xrotation Yrotation
      JOINT RightAnkle
      {
        OFFSET 0 -40.1986 0
        CHANNELS 3 Zrotation Xrotation Yrotation
        JOINT RightToe
        {
          OFFSET 0 -4.4182 9.239
          CHANNELS 3 Zrotation Xrotation Yrotation
          End Site
          {
            OFFSET 0 0 6.1981
          }
        }
      }
    }
  }
  JOINT LeftHip
  {
    OFFSET 9.4119 3.9773 -0.7758
    CHANNELS 3 Zrotation Xrotation Yrotation
    JOINT LeftKnee
    {
      OFFSET 0.7532 -40.9383 0
      CHANNELS 3 Zrotation Xrotation Yrotation
      JOINT LeftAnkle
      {
        OFFSET 0 -40.1986 0
        CHANNELS 3 Zrotation Xrotation Yrotation
        JOINT LeftToe
        {
          OFFSET 0 -4.4182 9.239
          CHANNELS 3 Zrotation Xrotation Yrotation
          End Site
          {
            OFFSET 0 0 6.1981
          }
        }
      }
    }
  }
}
MOTION
Frames:	4
Frame Time:	0.0333333
5.80788e-005 67.184 3.4734 0 0 -0 0 0 -0 0 0 -0 0 0 -0 0 0 -0 0 0 -0 0 0 -12.5014 88.1196 14.2451 10.6914 -0.00160068 -0.00239207 0.000740045 -8.4365e-005 7.00714e-005 -9.52055e-007 9.93923e-017 -1.98785e-016 -1.59028e-015 9.93923e-017 -5.96354e-016 -1.59028e-015 -9.93923e-017 -5.96354e-016 -1.59028e-015 9.93923e-017 -1.98785e-016 -1.59028e-015 -0.0128176 0.00232552 8.52707e-005 9.93923e-017 5.96354e-016 -0 9.93923e-017 -1.98785e-016 -1.59028e-015 -0.0160551 0.00299681 0.000857156 -2.48481e-016 0 3.18055e-015 9.93923e-017 -1.98785e-016 -1.59028e-015 -0.0125865 0.0031206 0.00282719 0 1.98785e-016 -0 9.93923e-017 -1.98785e-016 -1.59028e-015 9.93923e-017 -5.96354e-016 -1.59028e-015 -9.93923e-017 -5.96354e-016 -1.59028e-015 -0.865644 0.16582 7.03859 -88.0329 10.2057 -10.5567 0.0015593 -0.00248883 -0.000788628 7.87605e-005 4.10553e-005 1.24965e-005 -3.97569e-016 -7.95139e-016 3.18055e-015 -1.98785e-016 -3.97569e-016 3.18055e-015 -1.98785e-016 0 3.18055e-015 -3.97569e-016 -7.95139e-016 3.18055e-015 0.0129473 0.00231697 -8.70038e-005 9.93923e-017 -7.95139e-016 1.59028e-015 -3.97569e-016 -7.95139e-016 3.18055e-015 0.0163314 0.00303369 -0.000872333 3.97569e-016 7.95139e-016 -3.18055e-015 -3.97569e-016 -7.95139e-016 3.18055e-015 0.0145763 0.00367772 -0.00326275 9.93923e-017 -3.97569e-016 -0 -3.97569e-016 -7.95139e-016 3.18055e-015 -1.98785e-016 -3.97569e-016 3.18055e-015 -1.98785e-016 0 3.18055e-015 3.42485 1.36937 -0.0640303 0.000136572 0.69354 0.00145564 -3.42573 -2.06297 -0.0607933 -3.19502e-024 0 -1.48106e-024 -3.42498 1.36123 0.0639712 -6.769e-005 0.712612 -0.0012277 3.42582 -2.07388 0.0612819 2.55305e-023 0 -2.31416e-026 
1.41347 56.5697 -4.83425 -0 0 9.06905e-010 -0.00224075 0.29309 -0.0159024 -0.00440023 0.586181 -0.0317939 -0.00440015 0.58617 -0.0317933 -0.0103693 -0.00112697 -0.0291743 1.66698e-009 -1.06684e-007 4.26118e-011 -1.4264 -0.0344287 -12.5014 83.913 7.23112 11.4634 -0.860642 -2.9707 11.4605 -1.22708 0.223233 -0.035772 -3.97569e-016 0 -6.36111e-015 1.19271e-015 4.77083e-015 -3.18055e-015 1.76556e-031 1.59028e-015 -6.36111e-015 -3.97569e-016 0 -6.36111e-015 -0.0128414 0.0023294 8.77615e-005 2.38542e-015 -3.18055e-015 -0 -3.97569e-016 0 -6.36111e-015 -0.0160143 0.00298596 0.000856484 -3.18055e-015 1.59028e-015 -0 -3.97569e-016 0 -6.36111e-015 -0.0126545 0.00314041 0.00284247 -2.38542e-015 4.77083e-015 -0 -3.97569e-016 0 -6.36111e-015 1.19271e-015 4.77083e-015 -3.18055e-015 1.76556e-031 1.59028e-015 -6.36111e-015 0.560131 0.131351 7.03805 -83.8496 3.20528 -11.0197 0.471654 -2.63318 0.0598923 1.22564 0.220283 0.0666986 -1.98785e-015 8.5577e-007 -4.77083e-015 -1.78906e-015 -8.5577e-007 -0 -1.98785e-015 8.5577e-007 -1.59028e-015 -1.98785e-015 8.5577e-007 -4.77083e-015 0.0129886 0.00232377 -8.76876e-005 3.37934e-015 4.23993e-007 -1.59028e-015 -1.98785e-015 8.5577e-007 -4.77083e-015 0.0162894 0.00302864 -0.000870476 4.8083e-007 1.31234e-006 -5.46784e-007 -1.98785e-015 8.5577e-007 -4.77083e-015 0.0144332 0.00364308 -0.00322894 -9.1674e-008 8.4102e-007 -8.39669e-007 -1.98785e-015 8.5577e-007 -4.77083e-015 -1.78906e-015 -8.5577e-007 -0 -1.98785e-015 8.5577e-007 -1.59028e-015 2.50884 -8.43911 -1.15607 0.862241 29.6578 -0.306795 -4.89539 5.69085 -0.677009 1.20821e-008 -3.04489e-006 -2.37879e-008 -2.50914 -8.45189 1.15503 -0.86354 29.671 0.307837 4.89475 5.69049 0.676706 -3.74485e-007 -6.28062e-006 -2.70313e-007 
2.93703 45.0752 -13.7897 -0 0 5.41999e-010 -0.00407095 0.609063 -0.0331072 -0.00779065 1.21814 -0.0661773 -0.00779064 1.21814 -0.0661772 -0.0331821 -0.00415097 -0.0933281 5.24516e-009 2.37595e-011 2.69964e-008 -2.96395 -0.0718239 -12.5014 79.5981 -0.400998 12.2797 -1.71248 -6.24442 23.755 -2.54954 0.4645 -0.0689558 -3.53113e-031 -6.36111e-015 -3.18055e-015 3.18055e-015 -6.36111e-015 -3.18055e-015 1.59028e-015 -3.18055e-015 -3.18055e-015 -3.53113e-031 -6.36111e-015 -3.18055e-015 -0.0127181 0.0023029 8.39407e-005 -1.59028e-015 -3.18055e-015 -0 -3.53113e-031 -6.36111e-015 -3.18055e-015 -0.015965 0.00298187 0.000851927 -3.18055e-015 3.18055e-015 3.18055e-015 -3.53113e-031 -6.36111e-015 -3.18055e-015 -0.0125968 0.00312664 0.00282222 -3.18055e-015 3.18055e-015 9.54166e-015 -3.53113e-031 -6.36111e-015 -3.18055e-015 3.18055e-015 -6.36111e-015 -3.18055e-015 1.59028e-015 -3.18055e-015 -3.18055e-015 2.09701 0.0939122 7.03748 -79.4624 -4.38166 -11.52 0.982699 -5.4679 0.149646 2.54648 0.459194 0.133304 -1.98785e-015 -3.18055e-015 -1.59028e-015 1.16325e-007 1.58002e-006 4.08419e-007 1.16325e-007 -1.17227e-008 4.08419e-007 -1.98785e-015 -3.18055e-015 -1.59028e-015 0.0130207 0.00233194 -8.67089e-005 5.56597e-015 9.54166e-015 -0 -1.98785e-015 -3.18055e-015 -1.59028e-015 0.0162744 0.00302611 -0.000872082 -1.19162e-005 -1.72722e-006 1.7182e-006 -1.98785e-015 -3.18055e-015 -1.59028e-015 0.0146339 0.00369672 -0.00327762 3.97569e-016 0 7.95139e-016 -1.98785e-015 -3.18055e-015 -1.59028e-015 1.16325e-007 1.58002e-006 4.08419e-007 1.16325e-007 -1.17227e-008 4.08419e-007 1.40678 -18.2138 -2.49026 0.751137 59.3086 -0.0973895 -6.11627 14.855 -1.48204 3.5341e-007 1.19846e-008 -2.39333e-007 -1.40803 -18.2136 2.48843 -0.754562 59.3087 0.0994061 6.11499 14.8548 1.48131 1.4213e-006 1.69614e-005 1.58011e-007 
4.4606 33.5842 -22.7427 0 0 -6.70633e-010 -0.00529215 0.925068 -0.0503741 -0.00977262 1.85013 -0.100682 -0.00977262 1.85013 -0.100682 -0.0560011 -0.0072835 -0.157476 6.21202e-018 7.95139e-016 9.93923e-017 -4.50149 -0.109328 -12.5014 75.5083 -8.10261 13.1168 -2.47637 -9.5739 36.0027 -3.87194 0.706399 -0.0959295 -6.36111e-015 1.59028e-014 6.36111e-015 -2.61957e-006 -1.05044e-006 2.34108e-007 9.54166e-015 -6.36111e-015 -3.18055e-015 -6.36111e-015 1.59028e-014 6.36111e-015 -0.0128668 0.00233628 9.70023e-005 0 0 -3.18055e-015 -6.36111e-015 1.59028e-014 6.36111e-015 -0.0160536 0.00300433 0.000864542 -1.59028e-014 0 -3.18055e-015 -6.36111e-015 1.59028e-014 6.36111e-015 -0.0125011 0.00309586 0.0028123 6.36111e-015 1.27222e-014 3.18055e-015 -6.36111e-015 1.59028e-014 6.36111e-015 -2.61957e-006 -1.05044e-006 2.34108e-007 9.54166e-015 -6.36111e-015 -3.18055e-015 3.63388 0.0563641 7.03693 -75.2055 -12.0076 -12.0423 1.50206 -8.30262 0.265359 3.86707 0.699554 0.194386 6.95746e-015 3.18055e-015 -3.18055e-015 1.98785e-015 0 2.78299e-015 -3.77691e-015 0 1.98785e-015 6.95746e-015 3.18055e-015 -3.18055e-015 0.0129583 0.00231993 -9.25406e-005 -1.78906e-015 3.18055e-015 7.95139e-016 6.95746e-015 3.18055e-015 -3.18055e-015 0.0163348 0.00303405 -0.000875254 -5.36719e-015 3.18055e-015 3.57812e-015 6.95746e-015 3.18055e-015 -3.18055e-015 0.0145835 0.00367377 -0.00326618 -5.1684e-015 6.36111e-015 1.19271e-015 6.95746e-015 3.18055e-015 -3.18055e-015 1.98785e-015 0 2.78299e-015 -3.77691e-015 0 1.98785e-015 0.0599645 -27.7322 -4.21435 -34.6764 88.194 35.0669 -6.91376 24.229 -2.66153 2.06902e-032 1.59028e-015 -7.45443e-016 -0.0627349 -27.7442 4.21098 34.855 88.2052 -35.2467 6.91207 24.2287 2.66028 -4.24474e-007 3.55398e-009 3.87411e-008 
